<svg id="my-svg" xmlns="http://www.w3.org/2000/svg" width="128" height="128" viewBox="0 0 256 256" fill="none">  <defs>
    <linearGradient id="gradient1">
      <stop class="stop1" offset="0%" stop-color="none"></stop>
      <stop class="stop2" offset="100%" stop-color="none"></stop>
    </linearGradient>
  </defs>
  <rect id="backgr" width="256" height="256" fill="none" rx="60"></rect><path d="M74.667 64c0 5.891-4.776 10.667-10.667 10.667S53.333 69.891 53.333 64 58.109 53.333 64 53.333 74.667 58.109 74.667 64Zm64 0c0 5.891-4.776 10.667-10.667 10.667S117.333 69.891 117.333 64 122.109 53.333 128 53.333 138.667 58.109 138.667 64Zm64 0c0 5.891-4.776 10.667-10.667 10.667S181.333 69.891 181.333 64 186.109 53.333 192 53.333 202.667 58.109 202.667 64Zm-64 64c0 5.891-4.776 10.667-10.667 10.667s-10.667-4.776-10.667-10.667 4.776-10.667 10.667-10.667 10.667 4.776 10.667 10.667Zm64 0c0 5.891-4.776 10.667-10.667 10.667s-10.667-4.776-10.667-10.667 4.776-10.667 10.667-10.667 10.667 4.776 10.667 10.667Zm-128 0c0 5.891-4.776 10.667-10.667 10.667S53.333 133.891 53.333 128 58.109 117.333 64 117.333 74.667 122.109 74.667 128Zm128 64c0 5.891-4.776 10.667-10.667 10.667s-10.667-4.776-10.667-10.667 4.776-10.667 10.667-10.667 10.667 4.776 10.667 10.667Zm-64 0c0 5.891-4.776 10.667-10.667 10.667s-10.667-4.776-10.667-10.667 4.776-10.667 10.667-10.667 10.667 4.776 10.667 10.667Zm-64 0c0 5.891-4.776 10.667-10.667 10.667S53.333 197.891 53.333 192 58.109 181.333 64 181.333 74.667 186.109 74.667 192Z" stroke="currentColor" stroke-width="14" id="my-path" transform="translate(0,0) scale(1)"></path></svg>